<svg version="1.1" id="Layer_1" xmlns="http://www.w3.org/2000/svg" xmlns:xlink="http://www.w3.org/1999/xlink" x="0px" y="0px"
	 width="100%" viewBox="0 0 1024 448" enable-background="new 0 0 1024 448" xml:space="preserve">
<path fill="#F2F7A1" opacity="1.000000" stroke="none" 
	d="
M557.185181,263.928101 
	C551.801941,258.676117 549.695374,252.365906 549.510986,244.211502 
	C543.941528,250.366592 539.958801,256.308899 534.768799,261.188324 
	C532.210022,263.594086 529.560730,265.836975 526.760071,267.938049 
	C513.214722,278.099823 495.026703,272.854767 490.827148,256.434479 
	C487.278687,258.413910 485.656738,261.976349 483.514801,264.995117 
	C480.015198,269.927307 475.962799,274.327942 471.419922,278.258026 
	C462.464844,286.005096 451.150085,284.928802 443.729340,275.656372 
	C437.959991,268.447510 434.741302,260.160034 433.734558,250.994308 
	C433.540161,249.224350 433.733154,247.303040 431.768463,245.745972 
	C428.117279,249.769501 424.536682,253.830383 420.827667,257.770355 
	C417.033051,261.801239 412.460205,264.838715 407.834534,267.847900 
	C391.148987,278.702515 365.563507,266.613464 362.370178,249.465240 
	C361.873627,246.798828 361.583801,244.183243 361.786407,241.549149 
	C362.050232,238.119232 360.448517,236.843185 357.268555,236.346466 
	C348.173981,234.925888 348.254211,234.865952 345.214081,243.642746 
	C341.264984,255.043655 335.955811,265.654419 328.133087,275.035492 
	C320.492584,284.198029 306.736572,280.415710 301.883026,272.839691 
	C297.411560,265.860046 296.077454,258.052399 294.926361,250.120636 
	C294.694031,248.519379 295.070129,246.746933 293.745941,245.334412 
	C291.630615,245.121689 291.079407,247.008972 290.112732,248.193283 
	C287.041199,251.956451 283.727112,255.460938 279.707306,258.212067 
	C272.593384,263.080780 264.106903,260.586182 260.874603,252.564697 
	C258.066650,245.596252 257.643738,238.345490 259.103302,230.994553 
	C259.459534,229.200409 259.972870,227.443848 259.249634,225.199158 
	C253.357147,227.935822 247.668304,230.941040 241.327438,232.344070 
	C223.184830,236.358414 206.037415,232.358444 189.073166,226.284470 
	C172.298523,220.278366 156.384857,212.055954 139.301361,206.877487 
	C124.888313,202.508499 110.104149,199.961823 95.035049,200.421234 
	C79.605667,200.891586 66.209755,205.677048 58.688362,220.704407 
	C57.031677,224.014374 55.947987,227.468796 55.216839,231.072693 
	C54.877495,232.745361 54.329266,234.419540 52.207085,234.489929 
	C50.000099,234.563110 48.997368,233.069122 48.340946,231.212112 
	C47.821732,229.743256 47.941814,228.283447 48.175625,226.778259 
	C50.988785,208.668060 61.828941,197.809219 80.298920,194.814743 
	C97.847481,191.969666 115.138847,194.032089 132.310074,197.832977 
	C154.407944,202.724396 174.638947,212.802536 195.637726,220.739456 
	C212.204285,227.001129 228.703644,229.458237 245.558609,221.711960 
	C253.520599,218.052780 260.232178,213.034958 264.437653,205.305939 
	C266.419922,201.662842 269.132507,201.325104 272.366028,202.248901 
	C275.672791,203.193604 278.519318,204.736252 278.373138,209.052612 
	C278.038635,218.931213 275.331512,228.417313 273.878632,238.105362 
	C273.189758,242.698929 271.465393,247.393906 272.965485,252.474167 
	C276.809937,251.745361 278.839966,249.361832 280.967773,247.110535 
	C288.038239,239.629639 292.874329,230.679749 297.550659,221.651657 
	C298.913849,219.019836 300.372711,217.195618 303.645264,217.793152 
	C306.879791,218.383774 309.463806,219.916260 309.909332,223.319473 
	C310.382355,226.932571 310.403809,230.622940 310.387817,234.278549 
	C310.339050,245.427689 309.627258,256.612610 312.332062,267.591400 
	C312.836731,269.639771 312.816833,272.404572 315.062836,273.161926 
	C317.716583,274.056732 319.160675,271.427673 320.644531,269.774414 
	C329.632172,259.760529 334.989471,247.841873 338.636047,235.039642 
	C339.468994,232.115479 338.891174,230.108353 336.035767,228.468613 
	C330.318756,225.185562 325.675354,220.666229 322.263763,214.965012 
	C316.388550,205.146667 315.337738,194.549255 317.954193,183.668289 
	C319.437897,177.498032 323.138611,172.915848 330.104034,172.004532 
	C336.789612,171.129852 344.610199,174.693024 347.853546,180.830093 
	C352.159851,188.978516 353.561859,197.859482 352.725342,206.966660 
	C352.133026,213.414993 351.059296,219.836075 349.851318,226.203079 
	C349.318604,229.010727 350.208649,230.073776 352.717010,230.907471 
	C360.182129,233.388641 362.339508,232.559204 365.384644,225.559525 
	C369.655823,215.741608 377.098572,209.116852 386.641571,204.719818 
	C390.436432,202.971283 394.476501,203.249405 398.370544,204.497604 
	C404.431824,206.440475 406.811737,210.699707 405.200684,216.892075 
	C402.510345,227.232880 394.994293,232.546982 385.257416,235.132355 
	C375.804077,237.642441 375.508057,237.805801 375.019989,248.078644 
	C374.478912,259.467560 380.551025,266.725220 390.820099,267.026306 
	C393.750366,267.112183 396.367615,266.146027 398.979584,264.990845 
	C409.532227,260.323792 416.755096,251.874344 424.265930,243.540268 
	C430.554352,236.562607 432.642548,229.021332 433.148407,219.656281 
	C434.036957,203.206558 438.521301,187.192398 443.518433,171.479843 
	C450.059784,150.911774 458.341858,131.130676 471.923859,114.021774 
	C477.569794,106.909729 484.189423,100.842934 492.201599,96.474686 
	C500.375580,92.018242 508.881653,91.025703 517.646545,94.723557 
	C525.958130,98.230171 528.385437,105.396515 528.250000,113.435432 
	C528.027100,126.675201 524.038269,138.974030 517.356384,150.393707 
	C507.614471,167.043076 495.049255,181.463501 481.895599,195.434113 
	C472.741638,205.156677 463.333099,214.551971 451.732056,221.427628 
	C450.394684,222.220245 449.535553,223.434326 449.391663,225.071533 
	C448.272644,237.801514 445.869812,250.522675 449.140961,263.280304 
	C449.594360,265.048523 449.942902,266.860657 450.582153,268.561462 
	C454.461792,278.883881 459.524323,280.541870 467.215973,272.512268 
	C478.005249,261.249023 488.228882,249.364548 494.247589,234.540833 
	C497.682037,226.082047 502.127075,218.335495 511.567291,215.021912 
	C515.424133,213.668137 519.191101,213.999298 522.827820,215.232681 
	C529.109802,217.363220 530.788452,221.865204 527.854126,227.889481 
	C526.942383,229.761230 525.778687,231.542725 523.272095,230.614899 
	C520.902405,229.737762 519.792908,228.097855 520.995728,225.520401 
	C521.576782,224.275375 521.863098,223.022461 521.083435,221.698456 
	C518.064697,221.023407 516.776733,223.182144 515.578369,225.086349 
	C509.156982,235.290375 506.046722,246.735458 504.472839,258.460144 
	C503.257965,267.510193 508.325287,270.686218 516.796692,266.877533 
	C525.749207,262.852509 531.973511,255.592026 537.823120,248.086090 
	C544.270386,239.813217 549.907654,230.857986 556.830627,223.024460 
	C561.647339,217.574265 565.832458,211.747467 570.300964,206.081314 
	C574.915466,200.230011 582.212769,198.824921 589.359619,201.507050 
	C595.553833,203.831680 597.993591,208.135910 598.390442,216.085464 
	C598.848572,225.262314 597.009827,233.927734 593.719299,242.409348 
	C592.913940,244.485260 591.424988,246.460663 591.985657,249.331894 
	C602.166748,248.472107 609.005249,242.218628 615.375671,235.387527 
	C618.197815,232.361343 620.748657,228.971909 622.841980,225.406403 
	C625.055420,221.636200 628.002747,221.083801 631.727905,222.054276 
	C635.500854,223.037186 637.093262,225.649521 637.220154,229.423279 
	C637.262024,230.669510 636.778748,232.035217 637.855652,233.414413 
	C640.320190,230.403656 642.455933,227.208359 645.166077,224.612823 
	C649.964172,220.017761 655.213806,216.234772 662.559265,218.772339 
	C669.606812,221.206970 671.085693,226.993057 671.579651,233.892380 
	C674.977051,232.296509 676.144165,228.933136 678.556335,226.872650 
	C682.856262,223.199722 686.451416,218.788422 691.059631,215.398132 
	C700.112671,208.737671 715.142883,213.703918 715.325562,227.344925 
	C715.427368,234.951859 713.827820,242.208786 712.713684,249.592209 
	C711.820557,255.510849 710.707153,261.408356 710.124390,267.357635 
	C709.704834,271.640625 709.322388,276.492249 713.875610,278.977875 
	C718.249634,281.365601 721.834412,278.102081 725.309753,275.977356 
	C728.889954,273.788544 731.789673,270.768585 734.307129,267.399780 
	C736.700623,264.196808 739.089966,260.990143 741.529846,257.822571 
	C746.687073,251.126984 750.899719,244.656601 751.745483,235.323959 
	C753.309204,218.070190 768.940369,205.101578 784.559875,205.691772 
	C796.408813,206.139496 801.367126,214.401062 795.844910,224.854004 
	C790.485107,234.999603 782.044739,241.437103 770.838135,243.866226 
	C767.203491,244.654068 766.009399,246.109665 766.040833,249.862976 
	C766.198303,268.648071 784.244019,275.979889 802.565491,267.412292 
	C812.422241,262.803009 820.003357,255.327042 826.715820,246.889160 
	C835.116028,236.329865 841.792480,224.545135 850.602600,214.243698 
	C862.804688,199.976044 878.038696,192.689224 896.673340,191.606262 
	C912.025696,190.714066 926.348755,195.060364 940.639709,199.508514 
	C953.774170,203.596710 967.206177,206.164139 980.843933,206.452637 
	C993.960876,206.730118 1005.313538,202.018036 1012.534485,190.088745 
	C1012.963440,189.380051 1013.540344,188.762436 1014.022766,188.084259 
	C1015.866760,185.491684 1018.282104,185.582703 1020.621216,187.031250 
	C1023.207764,188.633041 1021.983948,190.893631 1020.915100,192.739578 
	C1014.981567,202.986862 1006.231995,209.653259 994.503601,211.392746 
	C977.138184,213.968292 960.013550,211.856537 943.048340,207.639252 
	C933.367188,205.232666 923.961853,201.791168 914.056091,200.221954 
	C895.080505,197.215958 878.962891,202.922302 865.051575,215.797440 
	C854.940125,225.155746 847.551636,236.725708 839.148193,247.469299 
	C832.422363,256.068024 824.896606,263.718048 815.381592,269.298401 
	C796.235657,280.526978 774.933533,278.269562 758.851074,263.007080 
	C756.739746,261.003418 755.217224,258.379211 753.081360,255.599075 
	C748.433228,261.415863 744.005249,266.967255 739.565369,272.509094 
	C737.156738,275.515594 734.318298,278.092712 731.222229,280.347809 
	C724.122253,285.519196 716.479309,286.164093 708.589233,282.446594 
	C701.349426,279.035461 698.373779,272.892426 697.893250,265.141449 
	C697.249512,254.758743 698.522461,244.543137 700.192993,234.350601 
	C700.890137,230.096878 701.325928,225.863495 700.430420,220.616272 
	C693.220520,226.173279 686.905396,231.607162 682.181152,238.697403 
	C678.758240,243.834656 675.867004,249.279037 673.294312,254.887589 
	C671.817993,258.105927 669.677917,260.056152 665.862732,259.122498 
	C662.224060,258.232086 660.016846,256.100494 659.808716,252.201111 
	C659.480286,246.046677 659.166504,239.891159 658.779846,233.740295 
	C658.667908,231.960220 659.093689,230.046982 657.567993,228.149582 
	C652.167480,230.169495 649.197205,234.928375 646.099792,239.214859 
	C640.044006,247.595490 634.859741,256.547058 631.118774,266.241211 
	C630.067078,268.966431 628.876770,271.087646 625.385071,270.298981 
	C622.156921,269.569855 620.574890,267.768860 620.613403,264.345306 
	C620.698608,256.760529 620.444458,249.169647 621.983398,240.277649 
	C618.755493,243.249771 616.748596,245.425873 614.421875,247.177139 
	C607.997681,252.012604 600.891907,255.059708 592.631714,254.368240 
	C589.207214,254.081589 586.420837,254.741867 584.650574,258.067688 
	C584.046326,259.202972 582.880493,260.042572 581.958435,261.005005 
	C574.061157,269.247803 567.452881,270.094574 557.185181,263.928101 
M508.878510,145.400772 
	C513.856689,136.566742 516.413086,126.956284 517.660034,116.994423 
	C518.240417,112.358063 518.000488,107.713303 515.968628,103.289940 
	C514.144836,99.319443 511.353546,98.272873 507.457214,99.974861 
	C503.306610,101.787926 499.573151,104.233353 496.249603,107.345642 
	C487.732635,115.321304 481.735504,125.065895 476.415955,135.299942 
	C466.053101,155.236526 459.982666,176.681732 454.528870,198.311691 
	C453.439514,202.632095 451.880493,207.065994 452.655426,213.377563 
	C474.870117,192.722015 494.029022,171.360397 508.878510,145.400772 
M339.793640,183.827820 
	C338.575195,181.752960 338.155426,178.592972 335.142548,178.573486 
	C331.906067,178.552597 330.552460,181.474792 329.147858,183.926788 
	C328.746033,184.628235 328.527649,185.452209 328.320435,186.244934 
	C326.377686,193.677383 326.852539,201.162811 328.987518,208.356873 
	C330.861145,214.670212 334.409882,220.189804 340.824982,224.779816 
	C343.101501,210.619415 344.540039,197.558273 339.793640,183.827820 
M575.106079,234.263443 
	C576.456238,238.481308 577.587341,242.835281 582.368347,245.766312 
	C588.814270,234.395599 590.518311,222.609741 587.995972,210.222610 
	C587.163147,206.132477 584.417419,207.527237 582.528503,209.494385 
	C576.088257,216.201553 572.817200,224.018570 575.106079,234.263443 
M782.866394,228.345718 
	C786.248596,223.809540 790.101379,219.412415 788.046082,212.903870 
	C777.133789,215.666794 766.606934,229.263489 768.065308,238.019928 
	C773.369995,236.708832 777.577271,234.030304 782.866394,228.345718 
M564.466980,240.055664 
	C562.845825,244.959564 561.642456,249.961380 562.463623,255.143417 
	C563.602295,262.329437 566.824280,263.610687 572.384155,259.232666 
	C574.843994,257.295685 577.144470,255.190186 578.283997,251.937149 
	C575.802795,249.961075 573.434814,247.950562 570.935242,246.119614 
	C568.465271,244.310364 568.150696,240.517593 564.466980,240.055664 
M385.562286,220.066452 
	C383.671204,223.394043 381.038055,226.378143 380.323822,230.558121 
	C392.057526,227.633438 400.159546,217.038742 395.729187,210.608276 
	C391.236267,212.184998 388.908051,216.177246 385.562286,220.066452 
z"/>
</svg>